<svg id="Device" xmlns="http://www.w3.org/2000/svg" xmlns:xlink="http://www.w3.org/1999/xlink" width="249" height="883" viewBox="0 0 249 883">
  <defs>
    <clipPath id="clip-path">
      <rect id="Mask" width="249" height="883" fill="none"/>
    </clipPath>
  </defs>
  <rect id="Mask-2" data-name="Mask" width="249" height="883" fill="none"/>
  <g id="Device-2" data-name="Device" clip-path="url(#clip-path)">
    <g id="iPhoneX_2" data-name="iPhoneX 2" transform="translate(-181.983)">
      <g id="iphone_x_light" data-name="iphone x light" transform="translate(0)">
        <g id="Buttons" transform="translate(0 113.857)">
          <path id="Right_4" data-name="Right #4" d="M0,104.3V0H2.311V.5H3.754c.121,0,.364.376.364.627V103.166c0,.125-.243.5-.364.5H2.311v.628Z" transform="translate(426.447 87.48)" fill="#424b5a"/>
          <path id="Left_3" data-name="Left #3" d="M1.484,66.267v-.4H.389c-.121,0-.364-.376-.364-.627V1.36A.237.237,0,0,1,0,1.255c0-.212.285-.4.389-.4H1.484V0H3.793V66.267Z" transform="translate(0 146.739)" fill="#424b5a"/>
          <path id="Left_2" data-name="Left #2" d="M1.459,66.267v-.593H.365C.243,65.675,0,65.3,0,65.047V1.165a.556.556,0,0,1,.365-.5H1.459V0H3.768V66.267Z" transform="translate(0.024 61.591)" fill="#424b5a"/>
          <path id="Left_1" data-name="Left #1" d="M1.387,34.765v-.374H.365c-.122,0-.365-.376-.365-.627V1.383A.558.558,0,0,1,.365.88H1.387V0H3.7V34.765Z" transform="translate(0.647 0)" fill="#424b5a"/>
        </g>
        <g id="Body" transform="translate(3.479)">
          <rect id="body-2" data-name="body" width="423.739" height="882" rx="42.486" fill="#f2f5f7"/>
          <path id="Border" d="M51.018,882A51.036,51.036,0,0,1,0,830.947V51.053A51.035,51.035,0,0,1,51.018,0h321.7A51.036,51.036,0,0,1,423.74,51.053V830.947A51.036,51.036,0,0,1,372.722,882Z" fill="#424b5a"/>
        </g>
        <g id="Screen" transform="translate(17.324 13.836)">
          <path id="Screen-2" data-name="Screen" d="M360.02,0h-49c-4.25,0-7,3.15-8,8.819-3.375,20.158-14.376,21.544-17.626,21.544H108.256c-3.25,0-14.376-1.512-17.626-21.544C89.755,3.15,87,0,82.629,0h-49C15.876,0,0,18.9,0,36.914V817.529c0,22.3,22.5,34.394,33.252,34.394H360.395c10.751,0,33.252-12.095,33.252-34.394V36.914C393.771,18.9,377.77,0,360.02,0Z" transform="translate(1.201 1.202)" fill="#fff"/>
          <g id="Thumbnail" transform="translate(157.972 393.518)">
            <rect id="background_copy" data-name="background copy" width="81.654" height="67.292" rx="4" fill="#fff"/>
            <path id="Border_Copy" data-name="Border Copy" d="M4.8,67.291A4.8,4.8,0,0,1,0,62.485V4.806A4.8,4.8,0,0,1,4.8,0H76.851a4.805,4.805,0,0,1,4.8,4.806V62.485a4.805,4.805,0,0,1-4.8,4.806Z" fill="#fff"/>
            <path id="Oval_2" data-name="Oval 2" d="M0,9.012a9.006,9.006,0,1,1,9.006,9.013A9.009,9.009,0,0,1,0,9.012Z" transform="translate(13.209 10.815)" fill="#fff"/>
            <path id="Path_4" data-name="Path 4" d="M4.092,23.009A2.4,2.4,0,0,1,.711,19.6L20.463,0,31.6,9.69a2.4,2.4,0,0,1-3.152,3.627L20.677,6.556Z" transform="translate(13.209 33.973)" fill="#fff"/>
            <path id="Path_4-2" data-name="Path 4" d="M4.1,35.032a2.4,2.4,0,0,1-3.4-3.4L32.312,0l17.3,15.194a2.4,2.4,0,0,1-3.168,3.613L32.526,6.583Z" transform="translate(31.221 21.943)" fill="#fff"/>
          </g>
          <path id="border-2" data-name="border" d="M34.452,854.327c-6.138,0-14.7-3.5-21.425-9.112C4.863,838.407,0,829.289,0,818.731V38.115C0,18.967,16.822,0,34.827,0h49c5,0,8.222,3.582,9.186,9.828,1.407,8.673,4.368,14.323,8.378,17.538a12.833,12.833,0,0,0,8.062,3H286.591a12.648,12.648,0,0,0,8.016-2.949c3.991-3.2,6.964-8.858,8.428-17.6C304.136,3.569,307.342,0,312.218,0h49c18.047,0,34.96,19.021,34.828,38.115V818.731c0,10.558-4.864,19.676-13.027,26.483-6.726,5.609-15.288,9.112-21.426,9.112Z" transform="translate(0 0)" fill="#fff"/>
        </g>
        <g id="Cam_Speaker" data-name="Cam &amp; Speaker" transform="translate(175.297 18.025)">
          <ellipse id="Camera" cx="7.375" cy="7.21" rx="7.375" ry="7.21" transform="translate(65.704)" fill="#424b5a"/>
          <rect id="Front_Speaker" data-name="Front Speaker" width="52.965" height="6.554" rx="3.277" transform="translate(0 3.933)" fill="#424b5a"/>
        </g>
      </g>
    </g>
  </g>
</svg>
