<svg id="iPhoneX_2" data-name="iPhoneX 2" xmlns="http://www.w3.org/2000/svg" width="358.565" height="734" viewBox="0 0 358.565 734">
  <g id="iphone_x_light" data-name="iphone x light" transform="translate(-0.017)">
    <g id="Buttons" transform="translate(0 94)">
      <path id="Right_4" data-name="Right #4" d="M0,86.8V0H1.924V.418h1.2c.1,0,.3.313.3.522V85.855c0,.1-.2.418-.3.418h-1.2V86.8Z" transform="translate(355.152 73.553)" fill="#424b5a"/>
      <path id="Left_3" data-name="Left #3" d="M1.236,55.148v-.33H.324c-.1,0-.3-.313-.3-.522V1.132A.2.2,0,0,1,0,1.045C0,.869.237.714.324.714h.912V0H3.159V55.148Z" transform="translate(0.017 122.868)" fill="#424b5a"/>
      <path id="Left_2" data-name="Left #2" d="M1.215,55.148v-.493H.3c-.1,0-.3-.313-.3-.522V.969A.463.463,0,0,1,.3.552h.911V0H3.138V55.148Z" transform="translate(0.037 52.007)" fill="#424b5a"/>
      <path id="Left_1" data-name="Left #1" d="M1.155,28.931V28.62H.3c-.1,0-.3-.313-.3-.522V1.151A.465.465,0,0,1,.3.733h.851V0H3.078V28.931Z" transform="translate(0.556 0.752)" fill="#424b5a"/>
    </g>
    <g id="Body" transform="translate(2)">
      <rect id="body-2" data-name="body" width="352.881" height="734" rx="42.486" transform="translate(0.914)" fill="#f2f5f7"/>
      <path id="Border" d="M42.486,734A42.487,42.487,0,0,1,0,691.514V42.486A42.486,42.486,0,0,1,42.486,0H310.395a42.487,42.487,0,0,1,42.486,42.486V691.514A42.487,42.487,0,0,1,310.395,734Z" transform="translate(0.914)" fill="#424b5a"/>
    </g>
    <g id="Screen" transform="translate(14 11)">
      <path id="Screen-2" data-name="Screen" d="M299.816,0H259.008c-3.539,0-5.83,2.621-6.663,7.339-2.811,16.775-11.972,17.929-14.679,17.929H90.153c-2.707,0-11.972-1.258-14.679-17.929C74.746,2.621,72.456,0,68.812,0H28C13.221,0,0,15.727,0,30.72V680.348c0,18.558,18.739,28.623,27.691,28.623H300.129c8.953,0,27.691-10.065,27.691-28.623V30.72C327.924,15.727,314.6,0,299.816,0Z" transform="translate(1.444 1.515)" fill="#fff"/>
      <g id="Thumbnail" transform="translate(132 328)">
        <rect id="background_copy" data-name="background copy" width="68" height="56" rx="4" fill="#fff"/>
        <path id="Border_Copy" data-name="Border Copy" d="M4,56a4,4,0,0,1-4-4V4A4,4,0,0,1,4,0H64a4,4,0,0,1,4,4V52a4,4,0,0,1-4,4Z" fill="#fff"/>
        <path id="Oval_2" data-name="Oval 2" d="M0,7.5A7.5,7.5,0,1,1,7.5,15,7.5,7.5,0,0,1,0,7.5Z" transform="translate(11 9)" fill="#fff"/>
        <path id="Path_4" data-name="Path 4" d="M3.408,19.148A2,2,0,1,1,.592,16.308L17.041,0l9.271,8.064a2,2,0,1,1-2.625,3.018L17.219,5.456Z" transform="translate(11 28.272)" fill="#fff"/>
        <path id="Path_4-2" data-name="Path 4" d="M3.414,29.153A2,2,0,0,1,.586,26.325L26.908,0,41.319,12.644a2,2,0,1,1-2.638,3.007L27.087,5.478Z" transform="translate(26 18.261)" fill="#fff"/>
      </g>
      <path id="border-2" data-name="border" d="M28.691,710.97c-5.112,0-12.241-2.916-17.843-7.583C4.05,697.722,0,690.134,0,681.348V31.72C0,15.784,14.009,0,29,0H69.812c4.167,0,6.847,2.981,7.65,8.179,1.172,7.218,3.638,11.92,6.977,14.6a10.692,10.692,0,0,0,6.714,2.494H238.667a10.538,10.538,0,0,0,6.675-2.454c3.324-2.66,5.8-7.372,7.019-14.648C253.278,2.97,255.947,0,260.008,0h40.808c15.029,0,29.114,15.829,29,31.72V681.348c0,8.787-4.051,16.375-10.849,22.039-5.6,4.667-12.731,7.583-17.843,7.583Z" transform="translate(0.444 0.515)" fill="#fff"/>
    </g>
    <g id="Cam_Speaker" data-name="Cam &amp; Speaker" transform="translate(146 15)">
      <ellipse id="Camera" cx="6.142" cy="6" rx="6.142" ry="6" transform="translate(54.717)" fill="#424b5a"/>
      <rect id="Front_Speaker" data-name="Front Speaker" width="44.108" height="5.455" rx="2.727" transform="translate(0 3.273)" fill="#424b5a"/>
    </g>
  </g>
</svg>
