<?xml version="1.0" encoding="UTF-8"?>
<svg width="20px" height="20px" viewBox="0 0 20 20" version="1.1" xmlns="http://www.w3.org/2000/svg" xmlns:xlink="http://www.w3.org/1999/xlink">
    <!-- Generator: Sketch 50.2 (55047) - http://www.bohemiancoding.com/sketch -->
    <title>Facebook</title>
    <desc>Created with Sketch.</desc>
    <defs></defs>
    <g id="Screens" stroke="none" stroke-width="1" fill="none" fill-rule="evenodd">
        <g id="Homalco-First-Nations---Laptop" transform="translate(-1192.000000, -19.000000)" fill="#9E9E9E" fill-rule="nonzero">
            <g id="Group-2">
                <g id="Group" transform="translate(1192.000000, 19.000000)">
                    <g id="Facebook">
                        <path d="M18.896191,0 L1.103809,0 C0.494053819,0 0,0.494053819 0,1.103809 L0,18.896191 C0,19.5057963 0.494053819,20 1.103809,20 L10.6825931,20 L10.6825931,12.2549777 L8.07624001,12.2549777 L8.07624001,9.23655083 L10.6825931,9.23655083 L10.6825931,7.01057348 C10.6825931,4.42730073 12.260373,3.02067488 14.5648085,3.02067488 C15.6686175,3.02067488 16.6173837,3.10287979 16.893823,3.13959849 L16.893823,5.83924704 L15.2955855,5.8399964 C14.0422789,5.8399964 13.7996358,6.43551373 13.7996358,7.30941872 L13.7996358,9.23655083 L16.7886127,9.23655083 L16.3993945,12.2549777 L13.7996358,12.2549777 L13.7996358,20 L18.896191,20 C19.5057963,20 20,19.5057963 20,18.896191 L20,1.103809 C20,0.494053819 19.5057963,0 18.896191,0" id="Fill-14"></path>
                    </g>
                </g>
            </g>
        </g>
    </g>
</svg>