<?xml version="1.0" encoding="UTF-8"?>
<svg width="25px" height="20px" viewBox="0 0 25 20" version="1.1" xmlns="http://www.w3.org/2000/svg" xmlns:xlink="http://www.w3.org/1999/xlink">
    <!-- Generator: Sketch 50.2 (55047) - http://www.bohemiancoding.com/sketch -->
    <title>Twitter</title>
    <desc>Created with Sketch.</desc>
    <defs></defs>
    <g id="Screens" stroke="none" stroke-width="1" fill="none" fill-rule="evenodd">
        <g id="Homalco-First-Nations---Laptop" transform="translate(-1265.000000, -19.000000)" fill="#9E9E9E" fill-rule="nonzero">
            <g id="Group-2">
                <g id="Group" transform="translate(1192.000000, 19.000000)">
                    <g id="Twitter" transform="translate(72.000000, 0.000000)">
                        <path d="M25.609625,2.3675 C24.704,2.769375 23.730875,3.040625 22.709625,3.1625 C23.752125,2.5375 24.55275,1.548125 24.929625,0.369375 C23.954,0.948125 22.873375,1.368125 21.723375,1.594375 C20.80275,0.613125 19.49025,0 18.03775,0 C15.249625,0 12.989,2.260625 12.989,5.04875 C12.989,5.444375 13.033375,5.83 13.119625,6.199375 C8.923375,5.98875 5.203375,3.97875 2.71275,0.924375 C2.278375,1.67 2.029625,2.536875 2.029625,3.4625 C2.029625,5.214375 2.920875,6.759375 4.275875,7.665 C3.448375,7.63875 2.669625,7.411875 1.989,7.03375 C1.988375,7.055 1.988375,7.075625 1.988375,7.0975 C1.988375,9.54375 3.729,11.584375 6.038375,12.048125 C5.614625,12.163125 5.168375,12.225 4.70775,12.225 C4.382125,12.225 4.065875,12.193125 3.75775,12.134375 C4.40025,14.14 6.264625,15.6 8.474,15.640625 C6.745875,16.995 4.569,17.801875 2.203375,17.801875 C1.795875,17.801875 1.394,17.778125 0.999,17.73125 C3.234,19.16375 5.88775,20 8.739,20 C18.025875,20 23.104625,12.30625 23.104625,5.634375 C23.104625,5.415625 23.099625,5.1975 23.09025,4.98125 C24.0765,4.269375 24.93275,3.38 25.609625,2.3675 Z" id="Shape"></path>
                    </g>
                </g>
            </g>
        </g>
    </g>
</svg>