<svg id="Dark" xmlns="http://www.w3.org/2000/svg" width="183" height="112" viewBox="0 0 183 112">
  <rect id="Rectangle_6" data-name="Rectangle 6" width="183" height="112" fill="none"/>
  <path id="FORM" d="M41.918,34.515a18.469,18.469,0,0,1-6.376-1.1,14.708,14.708,0,0,1-5.234-3.27,15.361,15.361,0,0,1-3.521-5.394A20.172,20.172,0,0,1,25.5,17.281a19.537,19.537,0,0,1,1.332-7.471,16.034,16.034,0,0,1,3.592-5.418,14.847,14.847,0,0,1,5.234-3.3A18,18,0,0,1,41.918,0a18.469,18.469,0,0,1,6.376,1.1,14.551,14.551,0,0,1,5.234,3.3,15.619,15.619,0,0,1,3.521,5.418,20.172,20.172,0,0,1,1.285,7.471,20.491,20.491,0,0,1-1.262,7.471,15.419,15.419,0,0,1-3.449,5.394,14.213,14.213,0,0,1-5.211,3.27A18.956,18.956,0,0,1,41.918,34.515Zm30.023-.667h0l-7.421,0V1.241a42.367,42.367,0,0,1,5.02-.668c1.729-.127,3.29-.192,4.64-.192,4.924,0,8.75.891,11.371,2.649s3.95,4.529,3.95,8.236A9.37,9.37,0,0,1,87.9,16.923a10.551,10.551,0,0,1-4.592,3.414c.67.83,1.375,1.787,2.095,2.841s1.454,2.185,2.164,3.341,1.4,2.373,2.07,3.627c.674,1.274,1.3,2.518,1.853,3.7l-8.324,0-.517-.927Q82,31.748,81.339,30.552c-.621-1.117-1.262-2.21-1.9-3.247s-1.3-2.054-1.927-2.983-1.272-1.794-1.9-2.555H71.941v12.08ZM74.606,6.73c-.529,0-1.017.016-1.451.048s-.833.064-1.214.1v8.975h2.093c2.777,0,4.794-.353,6-1.049a3.816,3.816,0,0,0,1.808-3.581,3.663,3.663,0,0,0-1.831-3.462A11.356,11.356,0,0,0,74.606,6.73Zm27.93,27.117h0l-7.232,0c.127-2.613.28-5.422.453-8.353.18-3.048.372-6.027.572-8.856.206-2.95.446-5.809.713-8.5.269-2.709.565-5.19.879-7.377h7.09c.576,1.062,1.24,2.371,1.975,3.892.749,1.553,1.533,3.239,2.33,5.012.826,1.837,1.635,3.692,2.4,5.514q.8,1.9,1.543,3.653l.694,1.645.694-1.645q.738-1.75,1.543-3.653c.793-1.88,1.6-3.735,2.4-5.514s1.581-3.458,2.33-5.012c.762-1.576,1.408-2.849,1.975-3.892h6.756c.316,2.186.612,4.667.881,7.377.271,2.745.511,5.6.713,8.5.208,2.976.4,5.955.572,8.856s.323,5.7.451,8.351l-7.232,0c-.094-3.153-.221-6.685-.38-10.5-.156-3.741-.4-7.6-.713-11.458q-.4.948-.852,1.991-.5,1.165-1.052,2.449c-.7,1.636-1.4,3.274-2.07,4.87-.746,1.776-1.392,3.3-1.975,4.653-.624,1.457-1.168,2.734-1.617,3.8h-5.186c-.42-1-.93-2.19-1.617-3.8-.647-1.509-1.311-3.075-1.975-4.653-.653-1.556-1.33-3.149-2.069-4.87q-1.047-2.434-1.9-4.44c-.313,3.793-.554,7.648-.713,11.458-.159,3.771-.287,7.3-.38,10.5Zm-95.113,0H0V.763H22.076V7.018H7.423V13.94H20.459v6.253H7.423V33.846Z" transform="translate(25.62 38.557)" fill="#424b5a"/>
</svg>
