<svg id="Dark" xmlns="http://www.w3.org/2000/svg" width="100" height="61" viewBox="0 0 100 61">
  <rect id="Rectangle_6" data-name="Rectangle 6" width="100" height="61" fill="#f2f5f7"/>
  <path id="FORM" d="M22.906,18.8a10.122,10.122,0,0,1-3.484-.6,8.041,8.041,0,0,1-2.86-1.781,8.364,8.364,0,0,1-1.924-2.938,10.954,10.954,0,0,1-.7-4.069,10.609,10.609,0,0,1,.728-4.069,8.731,8.731,0,0,1,1.963-2.951A8.117,8.117,0,0,1,19.487.6,9.868,9.868,0,0,1,22.906,0,10.123,10.123,0,0,1,26.39.6a7.955,7.955,0,0,1,2.86,1.795,8.5,8.5,0,0,1,1.924,2.951,10.954,10.954,0,0,1,.7,4.069,11.127,11.127,0,0,1-.689,4.069A8.4,8.4,0,0,1,29.3,16.419,7.77,7.77,0,0,1,26.455,18.2,10.389,10.389,0,0,1,22.906,18.8Zm16.406-.364H35.256V.676A23.224,23.224,0,0,1,38,.312c.945-.069,1.8-.1,2.535-.1a11.222,11.222,0,0,1,6.214,1.443,5.035,5.035,0,0,1,2.158,4.486,5.091,5.091,0,0,1-.871,3.081,5.764,5.764,0,0,1-2.509,1.859c.366.452.751.973,1.145,1.547s.795,1.19,1.183,1.82.767,1.292,1.131,1.975S49.693,17.79,50,18.432H45.448l-.282-.5-.718-1.289c-.339-.608-.689-1.2-1.04-1.769s-.71-1.119-1.053-1.625-.7-.977-1.04-1.391h-2v6.578ZM40.768,3.666c-.289,0-.556.009-.793.026s-.455.035-.663.052V8.632h1.144a6.951,6.951,0,0,0,3.276-.571,2.077,2.077,0,0,0,.988-1.95,1.993,1.993,0,0,0-1-1.885A6.223,6.223,0,0,0,40.768,3.666ZM56.03,18.435H52.078c.069-1.423.153-2.953.248-4.549.1-1.66.2-3.283.312-4.823.113-1.607.244-3.164.39-4.628s.309-2.827.481-4.018h3.875c.315.579.677,1.291,1.079,2.119.409.846.838,1.764,1.273,2.73.451,1,.893,2.011,1.313,3q.44,1.036.843,1.99l.379.9.379-.9q.4-.953.843-1.99c.433-1.024.875-2.034,1.313-3s.864-1.884,1.273-2.73S66.848.983,67.158.416H70.85c.173,1.191.335,2.542.482,4.018.148,1.495.279,3.052.39,4.628.114,1.621.219,3.244.312,4.823s.176,3.107.247,4.548H68.328c-.051-1.717-.121-3.641-.208-5.719-.085-2.038-.216-4.137-.39-6.241q-.22.516-.465,1.085L66.69,8.892c-.385.891-.765,1.783-1.131,2.652-.408.967-.761,1.8-1.079,2.534-.341.794-.638,1.489-.884,2.067H60.762c-.229-.542-.508-1.193-.884-2.067-.354-.822-.717-1.675-1.079-2.534s-.727-1.715-1.13-2.652q-.572-1.326-1.04-2.418c-.171,2.066-.3,4.165-.39,6.241-.087,2.054-.157,3.978-.208,5.719Zm-51.974,0H0V.416H12.064V3.822H4.056v3.77H11.18V11H4.056v7.435Z" transform="translate(14 21)" fill="#424b5a"/>
</svg>
