<svg id="Round" xmlns="http://www.w3.org/2000/svg" width="85" height="85" viewBox="0 0 85 85">
  <g id="Path_1" data-name="Path 1" fill="#a1aeb7">
    <path d="M 42.5 84 C 36.8970947265625 84 31.46231842041016 82.90288543701172 26.34663581848145 80.73914337158203 C 21.40496444702148 78.64898681640625 16.96668243408203 75.65653991699219 13.15507030487061 71.84493255615234 C 9.343459129333496 68.03331756591797 6.351011753082275 63.59503555297852 4.26085901260376 58.65336608886719 C 2.09711766242981 53.53768157958984 1 48.1029052734375 1 42.5 C 1 36.8970947265625 2.09711766242981 31.46231842041016 4.26085901260376 26.34663581848145 C 6.351011753082275 21.40496444702148 9.343459129333496 16.96668243408203 13.15507030487061 13.15507030487061 C 16.96668243408203 9.343459129333496 21.40496444702148 6.351011753082275 26.34663581848145 4.26085901260376 C 31.46231842041016 2.09711766242981 36.8970947265625 1 42.5 1 C 48.1029052734375 1 53.53768157958984 2.09711766242981 58.65336608886719 4.26085901260376 C 63.59503555297852 6.351011753082275 68.03331756591797 9.343459129333496 71.84493255615234 13.15507030487061 C 75.65653991699219 16.96668243408203 78.64898681640625 21.40496444702148 80.73914337158203 26.34663581848145 C 82.90288543701172 31.46231842041016 84 36.8970947265625 84 42.5 C 84 48.1029052734375 82.90288543701172 53.53768157958984 80.73914337158203 58.65336608886719 C 78.64898681640625 63.59503555297852 75.65653991699219 68.03331756591797 71.84493255615234 71.84493255615234 C 68.03331756591797 75.65653991699219 63.59503555297852 78.64898681640625 58.65336608886719 80.73914337158203 C 53.53768157958984 82.90288543701172 48.1029052734375 84 42.5 84 Z" stroke="none"/>
    <path d="M 42.5 2 C 37.03165054321289 2 31.72793579101562 3.070533752441406 26.73618698120117 5.181877136230469 C 21.91371154785156 7.221603393554688 17.582275390625 10.14207458496094 13.86217498779297 13.86217498779297 C 10.14207458496094 17.582275390625 7.221603393554688 21.91371154785156 5.181877136230469 26.73618698120117 C 3.070533752441406 31.72793579101562 2 37.03165054321289 2 42.5 C 2 47.96834945678711 3.070533752441406 53.27206420898438 5.181877136230469 58.26381301879883 C 7.221603393554688 63.08628845214844 10.14207458496094 67.417724609375 13.86217498779297 71.13782501220703 C 17.582275390625 74.85792541503906 21.91371154785156 77.77839660644531 26.73618698120117 79.81812286376953 C 31.72793579101562 81.92945861816406 37.03165054321289 83 42.5 83 C 47.96834945678711 83 53.27206420898438 81.92945861816406 58.26381301879883 79.81812286376953 C 63.08628845214844 77.77839660644531 67.417724609375 74.85792541503906 71.13782501220703 71.13782501220703 C 74.85792541503906 67.417724609375 77.77839660644531 63.08628845214844 79.81812286376953 58.26381301879883 C 81.92945861816406 53.27206420898438 83 47.96834945678711 83 42.5 C 83 37.03165054321289 81.92945861816406 31.72793579101562 79.81812286376953 26.73618698120117 C 77.77839660644531 21.91371154785156 74.85792541503906 17.582275390625 71.13782501220703 13.86217498779297 C 67.417724609375 10.14207458496094 63.08628845214844 7.221603393554688 58.26381301879883 5.181877136230469 C 53.27206420898438 3.070533752441406 47.96834945678711 2 42.5 2 M 42.5 0 C 65.97209930419922 0 85 19.02790069580078 85 42.5 C 85 65.97209930419922 65.97209930419922 85 42.5 85 C 19.02790069580078 85 0 65.97209930419922 0 42.5 C 0 19.02790069580078 19.02790069580078 0 42.5 0 Z" stroke="none" fill="#f2f5f7"/>
  </g>
  <line id="Line_4" data-name="Line 4" x1="60.186" y2="60.186" transform="translate(72.593 12.407) rotate(90)" fill="none" stroke="#f2f5f7" stroke-width="2"/>
  <line id="Line_5" data-name="Line 5" x1="60.186" y2="60.186" transform="translate(12.407 12.407)" fill="none" stroke="#f2f5f7" stroke-width="2"/>
</svg>
